<svg height="88" viewBox="0 0 101 88" width="101" xmlns="http://www.w3.org/2000/svg"><path d="m27 59.5c0 7.666705-2.66664 14.333305-8 20s-11.833295 8.5-19.5 8.5c-8.333375 0-15.333305-2.833305-21-8.5s-8.5-12.999955-8.5-22c0-31.000155 12.833205-57.49989 38.5-79.5l18.5 18c-5.000025 3.666685-10.0833075 8.9166325-15.25 15.75s-8.249995 13.5833-9.25 20.25c7.33337 1.33334 13.2499775 4.5833075 17.75 9.75s6.75 11.0833 6.75 17.75zm74 0c0 7.666705-2.66664 14.333305-8 20s-11.833295 8.5-19.5 8.5c-8.333375 0-15.333305-2.833305-21-8.5s-8.5-12.999955-8.5-22c0-31.000155 12.833205-57.49989 38.5-79.5l18.5 18c-5.000025 3.666685-10.0833075 8.9166325-15.25 15.75s-8.249995 13.5833-9.25 20.25c7.33337 1.33334 13.2499775 4.5833075 17.75 9.75s6.75 11.0833 6.75 17.75z" fill="#26293a" fill-opacity=".06" fill-rule="evenodd"/></svg>